<svg width="640" height="640" viewBox="0 0 608 448" fill="none" xmlns="http://www.w3.org/2000/svg">
<path d="M160 0C124.7 0 96 28.7 96 64V288C96 323.3 124.7 352 160 352H544C579.3 352 608 323.3 608 288V240C608 231.2 600.6 224.3 592.3 221.4C573.5 214.9 560 197 560 176C560 155 573.5 137.1 592.3 130.6C600.6 127.7 608 120.8 608 112V64C608 28.7 579.3 0 544 0H160ZM424 272C424 258.7 434.7 248 448 248C461.3 248 472 258.7 472 272C472 285.3 461.3 296 448 296C434.7 296 424 285.3 424 272ZM448 152C461.3 152 472 162.7 472 176C472 189.3 461.3 200 448 200C434.7 200 424 189.3 424 176C424 162.7 434.7 152 448 152ZM424 80C424 66.7 434.7 56 448 56C461.3 56 472 66.7 472 80C472 93.3 461.3 104 448 104C434.7 104 424 93.3 424 80ZM48 120C48 106.7 37.3 96 24 96C10.7 96 0 106.7 0 120V376C0 415.8 32.2 448 72 448H488C501.3 448 512 437.3 512 424C512 410.7 501.3 400 488 400H72C58.7 400 48 389.3 48 376V120Z" fill="#003C33"/>
</svg>
